<?xml version="1.0" encoding="utf-8"?>
<!-- Generator: Adobe Illustrator 23.1.0, SVG Export Plug-In . SVG Version: 6.00 Build 0)  -->
<svg version="1.1" id="Слой_1" xmlns="http://www.w3.org/2000/svg" xmlns:xlink="http://www.w3.org/1999/xlink" x="0px" y="0px"
	 viewBox="0 0 180 180" style="enable-background:new 0 0 180 180;" xml:space="preserve">
<style type="text/css">
	.st0{fill:#FFFFFF;stroke:#000000;stroke-miterlimit:10;}
</style>
<g transform="translate(0.000000,180.000000) scale(0.100000,-0.100000)">
	<path class="st0" d="M791,1374c-215-58-355-251-338-469c10-126,72-245,166-317c22-18,41-37,41-43c0-5-11-36-24-67
		c-28-69-30-68,102-68c254,0,466,112,556,291c44,89,59,162,54,269c-3,70-10,98-36,153c-37,80-121,172-190,210
		C1025,1386,895,1402,791,1374z M991,1229c119-30,221-184,205-313c-8-67-48-146-97-191l-41-37l16-41c9-22,14-43,11-45
		c-2-3-42-4-88-4c-174,1-310,79-371,211c-31,67-30,209,2,268c45,86,130,148,221,163C896,1247,928,1245,991,1229z"/>
	<path class="st0" d="M674,956c-15-38-1-51,59-54l58-3l-3,33c-3,32-4,33-56,36C693,970,678,967,674,956z"/>
</g>
</svg>
